<svg xmlns="http://www.w3.org/2000/svg" viewBox="0 0 800 450" fill="none">
  <rect width="800" height="450" fill="#f3f2ec"/>
  <rect x="60" y="180" width="100" height="60" rx="6" fill="#fff" stroke="#131313" stroke-width="2"/>
  <text x="110" y="214" text-anchor="middle" font-family="ui-monospace, monospace" font-size="10" fill="#131313">PROMPT</text>
  <rect x="190" y="180" width="100" height="60" rx="6" fill="#fff" stroke="#271675" stroke-width="2"/>
  <text x="240" y="214" text-anchor="middle" font-family="ui-monospace, monospace" font-size="10" fill="#131313">PLANNER</text>
  <rect x="320" y="160" width="100" height="50" rx="6" fill="#fff8f6" stroke="#b85848" stroke-width="2"/>
  <text x="370" y="189" text-anchor="middle" font-family="ui-monospace, monospace" font-size="10" fill="#b85848">TOOLS</text>
  <rect x="320" y="230" width="100" height="50" rx="6" fill="#fff" stroke="#271675" stroke-width="2"/>
  <text x="370" y="259" text-anchor="middle" font-family="ui-monospace, monospace" font-size="10" fill="#131313">MEMORY</text>
  <rect x="450" y="180" width="100" height="60" rx="6" fill="#fff" stroke="#271675" stroke-width="2"/>
  <text x="500" y="214" text-anchor="middle" font-family="ui-monospace, monospace" font-size="10" fill="#131313">POLICY</text>
  <rect x="580" y="180" width="120" height="60" rx="6" fill="#fff" stroke="#131313" stroke-width="2"/>
  <text x="640" y="214" text-anchor="middle" font-family="ui-monospace, monospace" font-size="10" fill="#131313">PRODUCTION</text>
  <path d="M160 210 L190 210" stroke="#271675" stroke-width="2" fill="none"/>
  <path d="M290 195 L320 185" stroke="#271675" stroke-width="2" fill="none"/>
  <path d="M290 225 L320 255" stroke="#271675" stroke-width="2" fill="none"/>
  <path d="M420 210 L450 210" stroke="#271675" stroke-width="2" fill="none"/>
  <path d="M550 210 L580 210" stroke="#271675" stroke-width="2" fill="none"/>
  <text x="400" y="310" text-anchor="middle" font-family="Georgia, serif" font-size="13" fill="#783848">The model is one component in a system</text>
  <text x="400" y="410" text-anchor="middle" font-family="Georgia, serif" font-size="16" fill="#171717">From prompt to production system</text>
</svg>